<?xml version="1.0" encoding="UTF-8"?>
<svg xmlns="http://www.w3.org/2000/svg" width="400px" height="400px" version="1.1" viewBox="0 0 400 400">

  <style type="text/css">

    .fil1 {
        fill:#565A5A;
    }
    .button {
        fill:#edecd3;
	}
    .fil3 {
        fill:#565A5A;
        fill-rule:nonzero;
    }
    .fnt1 {font-weight:normal;font-size:18.6667px;font-family:'Georgia'}
    .fnt0 {font-weight:normal;font-size:21.3332px;font-family:'Georgia'}

    .button:hover{
        fill:#ee6802;
    }

  </style>

  <path class="button" id="publishing" d="M307 32c55,35 90,94 92,159l-90 0c-3,-33 -21,-63 -47,-81l45 -78z"/>
  <path class="button" id="lectures" d="M108 23c58,-30 126,-30 183,0l-45 78c-14,-7 -30,-11 -46,-11 -17,0 -33,4 -47,11l-45 -78z"/>
  <path class="button" id="search" d="M0 191c3,-65 37,-124 92,-159l46 78c-27,18 -45,48 -47,81l-91 0z"/>
  <path class="button" id="settings" d="M92 369c-55,-35 -89,-95 -92,-160l91 0c2,34 20,63 47,81l-46 79z"/>
  <path class="button" id="calendar" d="M292 377c-58,31 -127,31 -185,0l46 -78c14,7 30,11 47,11 17,0 33,-4 47,-11l45 78z"/>
  <path class="button" id="questions" d="M399 209c-2,65 -37,125 -92,160l-45 -79c26,-18 44,-47 47,-81l90 0z"/>
  <circle class="button" id="biography" cx="200" cy="200" r="89"/>



  <text x="148" y="207"  class="fil1 fnt0">биография</text>

  <text x="172" y="53"  class="fil1 fnt1"><tspan rotate="350">л</tspan></text>
  <text x="182" y="52"  class="fil1 fnt1"><tspan rotate="353">е</tspan></text>
  <text x="191" y="51"  class="fil1 fnt1"><tspan rotate="359">к</tspan></text>
  <text x="202" y="50"  class="fil1 fnt1"><tspan rotate="1">ц</tspan></text>
  <text x="213" y="51"  class="fil1 fnt1"><tspan rotate="4">и</tspan></text>
  <text x="224" y="52"  class="fil1 fnt1"><tspan rotate="10">и</tspan></text>



  <text x="298" y="83"  class="fil1 fnt1"><tspan rotate="41">п</tspan></text>
  <text x="306" y="91"  class="fil1 fnt1"><tspan rotate="44">у</tspan></text>
  <text x="313" y="97"  class="fil1 fnt1"><tspan rotate="49">б</tspan></text>
  <text x="320" y="105"  class="fil1 fnt1"><tspan rotate="52">л</tspan></text>
  <text x="326" y="113"  class="fil1 fnt1"><tspan rotate="57">и</tspan></text>
  <text x="332" y="123"  class="fil1 fnt1"><tspan rotate="60">к</tspan></text>
  <text x="338" y="132"  class="fil1 fnt1"><tspan rotate="66">а</tspan></text>
  <text x="342" y="140"  class="fil1 fnt1"><tspan rotate="68">ц</tspan></text>
  <text x="346" y="151"  class="fil1 fnt1"><tspan rotate="71">и</tspan></text>
  <text x="349" y="162"  class="fil1 fnt1"><tspan rotate="77">и</tspan></text>

  <path class="fil3" d="M324 303c0,-1 -1,-1 -1,-1 -1,0 -1,1 -2,1 0,1 0,1 0,1 0,0 -1,0 -1,0l3 2c0,0 0,0 0,0 0,0 1,0 1,0 0,-1 0,-1 1,-1 0,0 0,-1 0,-1 0,0 0,-1 -1,-1 0,0 0,0 0,0zm1 -2c1,1 1,1 1,1 0,1 0,1 0,2 0,0 0,0 0,1 -1,0 -1,0 -1,1l-3 3 -1 0c0,0 0,0 0,0 1,0 1,-1 1,-1 0,0 0,0 0,0 0,0 0,0 -1,-1l-4 -3c0,-1 0,-1 -1,-1 0,0 0,0 0,0 0,0 0,1 0,1 -1,0 -1,0 -1,0l0 0c0,-1 1,-1 1,-2 1,-1 1,-1 2,-2 0,0 0,-1 1,-1 0,0 0,0 1,0 0,-1 0,-1 1,-1 0,0 0,1 1,1 0,0 0,1 0,1 0,1 0,1 0,2l0 0c0,0 0,0 1,-1 0,0 0,0 0,0 1,0 1,0 1,0 1,0 1,0 1,0zm-5 -1c0,0 0,0 0,0 -1,0 -1,0 -1,0 0,0 0,0 -1,0 0,0 0,1 0,1 0,0 0,0 0,0 -1,0 -1,1 -1,1l3 2 0 -1c1,0 1,0 1,-1 0,0 0,0 0,-1 0,0 0,0 0,0 0,0 0,-1 -1,-1zm10 -8c0,1 1,1 1,2 0,0 1,1 1,1 0,1 0,2 0,2 -1,1 -1,1 -1,2 -1,0 -1,1 -1,1 -1,0 -2,0 -2,0 -1,0 -1,0 -2,0 0,0 -1,0 -2,-1 -1,-1 -1,-2 -2,-3 0,-1 1,-2 1,-3 1,-1 2,-2 3,-2 1,0 3,0 4,1zm-1 2c-1,0 -1,-1 -2,-1 0,0 -1,0 -1,0 0,-1 -1,-1 -1,0 0,0 -1,0 -1,0 0,1 -1,1 -1,1 0,1 0,1 1,2 0,0 0,0 0,1 1,0 1,0 1,1 1,0 1,0 2,1 0,0 1,0 1,0 1,0 1,0 1,0 1,0 1,0 1,-1 1,0 1,-1 1,-2 -1,-1 -1,-1 -2,-2zm11 -8l-3 3 0 0c0,0 0,0 0,0 0,0 0,-1 0,-1 0,0 0,0 0,0 0,0 0,0 0,-1l-6 -3 -2 3 5 4c1,0 1,0 1,0 0,0 0,0 0,0 0,0 1,0 1,-1 0,0 0,0 0,0l1 0 -3 4 0 0c0,0 0,0 0,-1 0,0 0,0 0,0 0,0 0,0 0,0 0,-1 0,-1 0,-1l-5 -3c-1,0 -1,0 -1,0 0,0 0,0 0,0 0,0 -1,0 -1,0 0,0 0,0 0,1l0 -1 5 -8 0 0c0,0 0,1 0,1 0,0 0,0 0,0 0,0 0,0 0,0 0,1 0,1 1,1l4 3c1,0 1,0 1,0 0,0 0,0 0,0 0,0 1,0 1,0 0,0 0,0 0,-1l1 1zm-3 -12c1,0 2,0 2,0 1,0 1,0 2,0 1,1 1,1 1,2 1,0 1,1 1,1 0,1 1,1 0,2 0,0 0,1 0,1 0,1 -1,1 -1,1 0,1 0,1 -1,1l0 0 3 1c0,0 0,1 0,1 0,0 1,-1 1,-1 0,0 0,0 0,0 0,0 0,-1 1,-1l0 1 -2 4 -1 0c0,0 0,-1 0,-1 0,0 0,0 0,0 0,0 0,-1 0,-1 0,0 0,0 0,0l-8 -5c-1,0 -1,0 -1,0 0,0 0,0 0,0 -1,0 -1,0 -1,0 0,1 0,1 0,1l-1 0 2 -3 0 0 1 0 0 0c0,0 0,-1 0,-1 0,-1 0,-1 0,-2 0,0 1,-1 1,-1 0,0 1,0 1,0zm5 4c0,0 0,-1 -1,-1 0,0 0,-1 -1,-1 0,0 -1,0 -1,-1 -1,0 -1,0 -1,0 -1,0 -1,0 -2,0 0,1 0,1 -1,1 0,1 0,1 0,2 0,0 0,0 0,1l5 2c0,0 0,0 1,0 0,0 0,0 0,0 0,0 1,0 1,0 0,0 0,-1 0,-1 0,0 1,0 1,-1 0,0 -1,-1 -1,-1zm3 -13c1,1 1,1 2,2 0,0 1,1 1,1 0,1 0,1 0,2 0,0 0,1 0,2 -1,0 -1,1 -1,1 -1,0 -1,1 -2,1 0,0 -1,0 -2,0 0,0 -1,0 -2,-1 -1,0 -2,-1 -2,-2 0,-1 0,-3 0,-4 1,-1 2,-2 3,-2 1,0 2,0 3,0zm-1 2c0,0 0,0 -1,0 0,-1 -1,-1 -1,-1 -1,0 -1,1 -1,1 -1,0 -1,0 -1,1 0,0 0,0 0,1 0,0 0,1 0,1 0,0 1,1 1,1 0,0 1,0 1,1 1,0 1,0 2,0 0,0 1,0 1,0 1,0 1,0 1,0 1,0 1,0 1,-1 0,0 0,-1 0,-2 -1,-1 -1,-1 -3,-2zm8 -4c-1,1 -2,2 -3,2 -1,0 -2,0 -3,0 -1,-1 -1,-1 -2,-1 0,-1 -1,-1 -1,-2 0,0 0,-1 0,-1 0,-1 0,-1 0,-2 0,-1 1,-1 1,-2 1,0 2,0 2,0 0,0 1,0 1,1 0,0 0,0 0,0 0,1 0,1 -1,1 0,0 0,0 0,0 -1,0 -1,0 -1,0 0,0 0,-1 -1,-1 0,0 0,0 0,1 0,0 0,0 0,0 -1,1 -1,1 -1,1 0,0 1,1 1,1 0,0 0,1 1,1 0,0 1,1 1,1 1,0 2,0 3,0 1,0 2,0 2,-1 0,-1 0,-1 0,-2 0,0 0,-1 -1,-1l1 -1c0,1 1,2 1,2 0,1 0,2 0,3zm1 -11c-1,-1 -1,-1 -2,0 0,0 -1,0 -1,1 0,0 0,1 0,1 0,0 0,0 0,0l3 1c0,0 0,0 0,0 1,0 1,0 1,-1 0,0 0,0 0,-1 0,0 0,0 0,-1 0,0 -1,0 -1,0 0,0 0,0 0,0zm0 -2c1,0 1,0 1,1 0,0 1,0 1,1 0,0 0,0 0,1 0,0 0,1 0,1l-2 5 0 -1c0,0 0,0 0,0 0,0 0,0 0,0 0,-1 0,-1 0,-1 -1,0 -1,0 -1,0l-5 -2c-1,0 -1,0 -1,0 0,0 0,0 0,0 0,0 -1,0 -1,1 0,0 0,0 0,0l0 0 1 -5 1 1c0,0 0,0 0,0 -1,0 -1,0 -1,1 0,0 0,0 1,0 0,0 0,0 0,0l2 1c0,0 0,0 0,-1 0,0 0,0 0,0 1,-1 1,-1 1,-2 0,0 1,0 1,-1 0,0 1,0 1,0 0,0 1,0 1,0zm4 -4l-1 4 -1 0c0,0 0,0 0,0 0,0 0,0 0,0 0,-1 0,-1 0,-1 0,0 0,0 0,0l-6 -2c0,0 0,0 0,0 0,0 -1,0 -1,0 0,0 0,0 0,1 0,0 0,0 0,0l-1 0 2 -5 0 1c0,0 0,0 0,0 0,0 0,0 0,0 0,1 0,1 0,1 0,0 1,0 1,0l5 2c0,0 1,0 1,0 0,0 0,0 0,0 0,0 0,0 0,0 1,-1 1,-1 1,-1l0 0z"/>
  <path class="fil3" d="M168 358l-3 -1c0,-1 0,-1 0,-1 0,-1 0,-1 0,-2 0,0 -1,-1 -1,-1 0,-1 0,-1 -1,-1l0 0 -1 2c0,1 0,1 0,1 0,0 0,0 0,0 1,0 1,0 1,1 0,0 0,0 0,0l0 0 -4 -1 0 0c0,0 0,0 0,0 1,0 1,0 1,0 0,0 0,0 0,-1 0,0 0,0 1,0l1 -6c0,0 0,0 0,0 0,0 0,0 0,-1 0,0 0,0 -1,0 0,0 0,0 0,0l0 -1 4 2 0 0c0,0 0,0 0,0 0,0 0,0 -1,0 0,0 0,0 0,0 0,0 0,1 0,1l-1 2 1 0c0,1 0,1 0,1 0,-1 1,-1 1,-1 0,0 0,0 0,0 1,0 1,-1 1,-1 0,0 0,0 1,-1 0,0 0,0 0,0 0,0 1,-1 1,-1 0,0 0,0 1,0 0,1 1,1 1,1 0,0 0,1 0,1 0,0 0,0 -1,0 0,1 0,1 0,1 -1,-1 -1,-1 -1,-1 0,0 0,0 0,-1 0,0 -1,1 -1,1 0,0 0,0 0,1 -1,0 -1,0 -1,1 0,0 -1,0 -1,0l0 0c0,0 1,1 1,1 0,0 0,1 1,1 0,1 0,1 0,1 0,1 0,1 0,1 0,0 0,0 0,0 0,1 0,1 0,1 1,0 1,0 1,0 0,0 0,0 0,0l0 1zm9 1c0,0 0,0 -1,0 0,0 0,0 0,0 -1,0 -1,0 -1,0 -1,-1 -1,-1 -1,-1l0 0c0,0 -1,0 -1,0 -1,1 -1,1 -2,0 -1,0 -1,0 -1,0 -1,-1 -1,-2 -1,-2 0,-1 0,-1 1,-1 0,0 0,-1 0,-1 0,0 0,0 1,0 0,0 0,0 1,0 0,0 0,0 1,-1 1,0 2,0 2,0l0 -1c0,0 0,0 0,0 0,0 0,-1 0,-1 0,0 0,0 0,-1 0,0 -1,0 -1,0 0,0 -1,0 -1,0 0,0 0,0 -1,0 0,0 0,0 0,1 0,0 0,0 0,0 0,1 0,1 0,1 0,0 0,0 -1,0 0,0 0,0 0,0 0,-1 0,-1 0,-1 0,0 0,-1 0,-1 0,0 1,0 1,0 0,-1 1,-1 1,-1 0,0 1,0 1,0 1,0 1,1 1,1 1,0 1,0 1,0 1,1 1,1 1,1 0,1 0,1 0,2 0,1 0,1 -1,2 0,1 0,2 0,2 0,1 0,1 0,1 0,0 0,0 0,0 0,0 1,0 1,0 0,0 0,1 0,1l0 0zm-2 -5c-1,0 -1,0 -2,0 0,0 0,0 -1,0 0,1 0,1 -1,1 0,0 0,1 0,1 0,0 0,1 0,1 0,0 1,1 1,1 1,0 1,0 1,0 1,-1 1,-1 1,-1l1 -3zm13 7l-5 -1 0 0c0,0 0,0 1,0 0,0 0,0 0,0 0,0 0,-1 0,-1 1,0 1,0 1,0l0 -7 -2 0c0,1 0,3 -1,4 0,1 0,1 -1,2 0,1 -1,1 -1,1 -1,1 -1,1 -1,1 -1,0 -1,0 -1,-1 -1,0 -1,0 -1,-1 0,0 0,0 1,0 0,0 0,0 0,0 1,0 1,0 1,0 0,0 0,0 0,1 1,0 1,-1 1,-1 0,0 1,-1 1,-1 0,-1 0,-1 0,-2 1,-1 1,-1 1,-2 0,0 0,-1 0,-1 0,0 0,0 0,0 -1,0 -1,0 -1,0 0,-1 0,-1 -1,-1l0 0 9 1 0 0c-1,0 -1,0 -1,0 0,0 0,0 0,0 0,0 -1,0 -1,1 0,0 0,0 0,0l-1 6c0,0 0,0 0,0 0,1 1,1 1,1 0,0 0,0 0,0 0,0 0,0 1,0l0 1zm9 -2c-1,1 -1,1 -2,2 0,0 -1,0 -2,0 -1,0 -1,0 -2,0 0,0 -1,-1 -1,-1 0,-1 -1,-1 -1,-2 0,-1 0,-1 0,-2 0,0 0,-1 1,-1 0,-1 0,-2 0,-2 1,0 1,-1 2,-1 0,0 1,0 2,0 0,0 1,0 1,0 1,1 1,1 1,1 1,1 1,1 1,1 0,1 0,1 0,2l0 1 -6 -1c0,1 0,1 0,2 0,0 0,1 0,1 1,0 1,1 1,1 1,0 1,0 2,0 0,0 1,0 1,0 0,0 1,-1 1,-1l1 0zm-2 -3c0,-1 0,-1 0,-1 0,-1 0,-1 0,-1 0,-1 0,-1 -1,-1 0,0 0,0 0,0 -1,0 -2,0 -2,0 -1,1 -1,1 -1,2l4 1zm13 6l-5 -1 1 0c0,0 0,0 0,0 0,0 0,0 0,0 1,0 1,0 1,0 0,-1 0,-1 0,-1l0 -3 -4 0 0 3c0,0 0,0 0,0 0,0 0,1 0,1 0,0 1,0 1,0 0,0 0,0 0,0l0 0 -4 0 0 0c0,0 0,0 0,0 0,0 1,0 1,0 0,0 0,-1 0,-1 0,0 0,0 0,0l0 -6c0,0 0,0 0,-1 0,0 0,0 0,0 0,0 0,0 -1,0 0,0 0,0 0,0l0 -1 4 0 0 1c0,0 0,0 0,0 0,0 0,0 0,0 -1,0 -1,0 -1,0 0,1 0,1 0,1l0 2 4 0 0 -2c0,0 0,0 0,0 0,0 0,-1 0,-1 -1,0 -1,0 -1,0 0,0 0,0 0,0l0 -1 4 1 0 0c0,0 0,0 0,0 -1,0 -1,0 -1,0 0,0 0,0 0,1 0,0 0,0 0,0l0 6c0,0 0,0 0,0 0,1 0,1 0,1 0,0 0,0 0,0 1,0 1,0 1,0l0 1zm1 -1c1,-1 1,-2 2,-4 0,-1 0,-2 0,-3 0,0 0,0 0,0 0,-1 0,-1 0,-1 0,0 -1,0 -1,0 0,0 0,0 -1,0l0 -1 9 0 0 0c-1,0 -1,0 -1,0 0,0 0,1 0,1 0,0 0,0 -1,0 0,0 0,0 0,0l1 6c0,1 0,1 0,1 0,0 0,0 1,0l0 0 1 3 -1 0c0,0 0,-1 -1,-1 0,-1 0,-1 -1,-1l-5 0c0,0 -1,1 -1,1 0,1 0,1 -1,2l0 0 0 -3 0 0zm2 0l3 -1c1,0 1,0 1,0 0,0 0,0 0,0l0 -7 -3 0c0,1 0,3 0,4 0,2 -1,3 -1,4zm17 -2c0,1 0,1 -1,1 0,0 0,0 0,0 -1,0 -1,0 -2,0 0,0 0,-1 0,-1l0 0c-1,0 -1,1 -1,1 -1,0 -1,0 -2,1 -1,0 -1,0 -2,-1 0,0 -1,-1 -1,-1 0,-1 0,-1 0,-1 1,-1 1,-1 1,-1 0,0 0,0 0,-1 1,0 1,0 1,0 0,0 1,0 2,-1 0,0 1,-1 1,-1l0 -1c0,0 0,0 0,0 0,0 0,0 0,-1 0,0 -1,0 -1,0 0,0 -1,0 -1,0 0,0 0,0 -1,0 0,0 0,0 0,0 0,0 0,1 0,1 0,0 0,0 0,0 0,1 0,1 0,1 0,0 0,0 -1,0 0,0 0,0 0,0 -1,0 -1,0 -1,-1 0,0 0,0 0,0 1,-1 1,-1 1,-1 0,0 1,0 1,-1 0,0 1,0 1,0 1,0 1,0 1,0 1,0 1,0 2,0 0,0 0,1 0,1 1,0 1,1 1,2 0,0 0,1 0,2 0,1 0,1 0,2 0,0 0,0 0,1 1,0 1,0 1,0 0,0 0,0 0,0 1,0 1,0 1,0l0 0zm-4 -4c0,0 -1,0 -1,1 0,0 -1,0 -1,0 0,1 -1,1 -1,1 0,0 0,1 0,1 0,1 0,1 1,1 0,0 0,1 1,0 0,0 1,0 1,0 0,0 0,-1 1,-1l-1 -3zm12 -5c0,1 0,1 1,1 0,1 0,2 0,2 0,1 0,2 0,2 0,1 0,1 0,2 -1,0 -1,1 -2,1 0,0 0,1 -1,1 -1,0 -1,0 -1,0 -1,0 -1,0 -1,0l0 0 0 2c0,0 0,1 0,1 0,0 1,0 1,0 0,0 0,0 0,0 1,0 1,0 1,0l0 1 -5 0 0 0c0,0 1,0 1,0 0,0 0,0 0,0 0,-1 0,-1 0,-1 1,0 1,0 0,0l-1 -10c0,0 0,0 0,0 -1,0 -1,-1 -1,-1 0,0 0,0 0,0 -1,0 -1,0 -1,0l0 0 3 -1 0 0 0 1 0 0c1,0 1,-1 1,-1 1,0 1,-1 2,-1 0,0 1,0 1,0 1,1 1,1 2,1zm-1 7c0,-1 1,-1 1,-2 0,0 0,-1 -1,-1 0,-1 0,-1 0,-2 0,0 0,0 -1,-1 0,0 0,0 -1,0 0,-1 0,-1 -1,-1 0,1 -1,1 -1,1 0,0 0,0 -1,1l1 5c0,0 1,0 1,0 0,1 0,1 0,1 0,0 1,0 1,0 0,0 0,0 1,0 0,0 0,0 1,0 0,-1 0,-1 0,-1zm10 -4c0,0 0,-1 -1,-1 0,0 -1,0 -2,0 0,0 0,0 0,0 0,0 -1,0 -1,0l1 3c0,1 0,1 0,1 1,0 1,0 1,0 1,0 1,0 1,-1 1,0 1,0 1,0 0,-1 0,-1 0,-1 0,0 0,-1 0,-1zm2 0c0,0 0,1 0,1 0,0 -1,1 -1,1 0,0 0,1 -1,1 0,0 -1,0 -1,0l-5 1 0 0c0,0 1,0 1,0 0,0 0,0 0,-1 0,0 0,0 0,0 0,0 0,0 0,0l-1 -6c0,0 0,0 0,-1 0,0 0,0 -1,0 0,0 0,0 0,0 0,0 0,0 -1,0l0 0 5 -1 0 0c0,0 0,0 -1,0 0,0 0,0 0,0 0,1 0,1 0,1 0,0 0,0 0,0l0 2c0,0 1,0 1,0 0,0 0,0 0,0 1,0 2,0 2,0 0,0 1,0 1,0 1,0 1,0 1,1 0,0 1,0 1,1z"/>
  <path class="fil3" d="M48 245l-1 -4 1 0c0,0 0,0 0,0 0,1 0,1 0,1 0,0 0,0 0,0 1,0 1,0 1,0l3 0 -1 -4 -3 0c0,0 0,0 0,0 0,1 0,1 0,1 0,0 -1,0 -1,0 1,0 1,1 1,1l-1 0 -1 -4 1 0c0,0 0,0 0,0 0,0 0,0 0,0 0,0 0,1 0,1 0,0 1,0 1,0l5 -2c1,0 1,0 1,0 0,0 0,0 0,0 0,-1 0,-1 0,-1 0,0 0,0 0,0l1 0 1 4 -1 0c0,0 0,0 0,0 0,-1 0,-1 0,-1 0,0 0,0 -1,0 0,0 0,0 0,0l-2 0 1 4 2 0c0,0 0,0 0,0 0,0 0,-1 0,-1 0,0 0,0 0,0 0,0 0,-1 0,-1l1 0 1 4 -1 1c0,-1 0,-1 0,-1 0,0 0,0 0,0 0,0 0,0 0,-1 0,0 -1,0 -1,0l-5 2c-1,0 -1,0 -1,0 0,0 0,0 0,0 0,1 0,1 0,1 0,0 0,0 0,0l-1 0zm4 10c-1,-1 -1,-1 -1,-1 0,0 0,0 0,-1 0,0 0,0 0,-1 0,0 0,0 0,-1l0 0c0,0 -1,0 -1,-1 0,0 -1,0 -1,-1 0,-1 0,-1 0,-2 0,0 1,-1 2,-1 0,0 0,0 0,0 1,0 1,0 1,0 1,0 1,0 1,1 0,0 0,0 1,0 0,0 0,1 1,1 0,1 1,2 1,2l1 0c0,0 0,0 0,-1 0,0 0,0 1,0 0,0 0,0 0,-1 0,0 0,0 0,-1 0,0 0,0 -1,0 0,-1 0,-1 0,-1 0,0 0,0 0,0 -1,1 -1,1 -1,1 0,0 0,0 -1,0 0,0 0,-1 0,-1 0,0 0,0 0,-1 0,0 0,0 1,0 0,0 0,0 0,0 1,0 1,0 1,0 1,1 1,1 1,1 0,1 0,1 1,1 0,1 0,1 0,2 0,0 0,0 0,1 0,0 -1,0 -1,1 0,0 -1,0 -1,0 -1,1 -2,1 -2,1 -1,0 -2,0 -2,1 -1,0 -1,0 -1,0 0,0 0,0 0,1 0,0 0,0 0,0 0,0 0,0 0,1l0 0zm3 -5c0,0 -1,-1 -1,-1 0,0 0,-1 -1,-1 0,0 0,0 -1,0 0,0 0,0 -1,0 0,0 0,0 -1,1 0,0 0,0 0,1 1,0 1,0 1,1 0,0 1,0 1,0l3 -1zm-2 10c-1,-2 0,-3 0,-4 1,-1 2,-2 3,-2 0,0 1,0 2,0 0,0 1,0 1,0 1,0 1,0 2,1 0,0 1,1 1,1 0,1 0,2 0,2 0,1 -1,2 -1,2 -1,0 -1,0 -1,0 0,0 -1,0 -1,-1 0,0 0,0 0,0 0,-1 0,-1 1,-1 0,0 0,0 1,0 0,0 0,0 0,0 0,0 0,-1 0,-1 0,0 0,0 0,-1 0,0 0,0 0,0 -1,0 -1,-1 -1,-1 -1,0 -1,0 -2,0 0,0 -1,0 -1,1 -1,0 -2,1 -3,1 0,1 0,2 0,3 0,0 1,1 1,1 0,0 1,0 2,0l-1 1c0,0 -1,0 -2,-1 0,0 -1,-1 -1,-1zm11 8l-1 0c0,0 1,-1 1,-1 0,0 0,0 0,0 0,-1 0,-1 1,-1 0,0 0,0 0,-1 0,0 -1,0 -1,0 0,0 0,-1 0,-1l-6 3c0,0 0,0 0,0 0,1 0,1 0,1 0,0 0,0 0,0 0,1 0,1 0,1l-1 0 -2 -4 1 0c0,0 0,0 0,0 0,0 0,0 0,0 0,1 1,1 1,1 0,0 0,0 0,0l6 -3c0,0 0,-1 0,-1 0,0 0,0 0,0 0,0 0,-1 -1,-1 0,0 0,0 0,0 -1,0 -1,0 -1,0 0,0 -1,0 -1,0l0 0 3 -2 3 8 -2 1zm6 8c-1,1 -1,1 -1,2 -1,0 -1,0 -2,1 -1,0 -1,0 -2,0 -1,0 -1,0 -2,0 0,0 -1,0 -1,-1 -1,0 -1,0 -1,-1 0,0 -1,-1 -1,-1 0,-1 0,-1 0,-1l0 0 -2 1c0,0 0,0 0,0 -1,0 -1,1 -1,1 0,0 1,0 1,0 0,1 0,1 0,1l-1 0 -2 -4 1 0c0,0 0,0 0,0 0,0 0,0 0,0 0,1 0,1 1,1 0,0 0,0 0,0l9 -5c0,0 0,0 0,0 0,0 0,0 0,-1 0,0 0,0 0,0 0,0 0,-1 0,-1l1 0 1 3 0 0 -1 0 0 0c1,1 1,1 2,1 0,0 0,1 0,1 1,1 1,1 1,2 0,0 0,1 0,1zm-7 2c1,0 1,0 2,0 0,-1 1,-1 1,-1 1,0 1,0 1,-1 1,0 1,0 1,-1 0,0 1,0 1,-1 0,0 0,-1 -1,-1 0,0 0,-1 0,-1 -1,0 -1,0 -1,0l-5 2c0,0 0,0 -1,1 0,0 0,0 0,0 0,0 0,1 0,1 0,0 0,0 0,1 1,0 1,0 1,0 0,1 1,1 1,1zm9 9c0,0 -1,0 -1,1 -1,0 -2,0 -2,0 -1,0 -1,-1 -2,-1 0,0 -1,-1 -1,-1 -1,-1 -1,-1 -1,-2 0,0 0,-1 0,-2 0,0 1,-1 1,-1 0,-1 1,-1 1,-2 2,0 3,-1 4,0 1,0 2,0 3,2 1,1 1,2 0,3 0,1 -1,2 -2,3zm-1 -2c1,0 1,0 1,-1 1,0 1,0 1,-1 0,0 1,0 1,-1 0,0 -1,-1 -1,-1 0,0 0,-1 -1,-1 0,0 0,0 -1,0 0,0 -1,0 -1,0 -1,0 -1,1 -1,1 -1,0 -1,1 -2,1 0,0 0,1 -1,1 0,0 0,1 0,1 0,1 0,1 0,1 1,1 1,1 2,1 1,0 2,0 3,-1zm4 14l-3 -4 1 0c0,0 0,0 0,0 0,0 0,0 0,0 1,0 1,0 1,0 0,0 0,0 0,0l4 -2 -6 -1 0 0c0,0 0,0 0,0 0,0 0,1 0,1 0,0 0,0 0,0 0,0 0,0 0,1l0 0 -3 -4 1 0c0,0 0,0 0,0 0,0 0,1 0,1 0,0 0,0 1,0 0,0 0,0 0,0l5 -4c0,0 0,0 0,0 0,0 0,-1 0,-1 0,0 0,0 0,0 0,0 0,0 0,-1l0 0 3 4 -1 0c0,0 0,0 0,0 0,0 0,-1 0,-1 0,0 0,0 -1,0 0,0 0,0 0,0l-4 3 6 1c0,0 0,0 1,-1 0,0 0,0 0,0 0,0 -1,0 -1,0 0,-1 0,-1 0,-1l1 0 2 3 0 1c0,0 0,-1 -1,-1 0,0 0,0 0,0 0,0 0,0 0,0 0,0 -1,0 -1,0l-5 4c0,0 0,0 0,0 0,0 0,0 0,0 0,1 0,1 0,1 0,0 0,0 0,0l0 1zm9 -9c0,0 0,0 -1,0 0,0 0,0 0,0 -1,0 -1,0 -1,-1 -1,0 -1,0 -1,-1 -1,0 -1,-1 -1,-1 0,0 0,-1 0,-1 0,0 0,-1 0,-1 0,0 0,0 1,0 0,-1 0,-1 0,-1 1,0 1,1 1,1 0,0 0,0 0,0 0,1 0,1 0,1 0,0 -1,0 -1,0 0,0 0,0 0,0 0,1 0,1 0,1 0,0 0,1 0,1 0,0 0,0 1,1 0,0 0,0 0,0 0,0 1,0 1,-1 0,0 0,0 0,0 0,0 1,0 1,0 0,0 0,0 0,0 1,0 1,1 1,1 -1,0 -1,0 -1,1zm-2 17l-2 -2c0,-1 0,-1 1,-1 0,-1 0,-1 0,-2 0,0 1,-1 1,-1 0,-1 -1,-1 -1,-1l0 -1 -2 2c0,0 0,0 0,0 0,1 0,1 0,1 0,0 0,0 0,0 0,0 0,1 0,1l0 0 -3 -3 0 -1c0,0 0,0 1,1 0,0 0,0 0,0 0,0 0,0 0,0 0,0 1,0 1,0l4 -4c1,0 1,0 1,0 0,0 0,-1 0,-1 0,0 0,0 0,0 -1,0 -1,-1 -1,-1l1 0 3 3 -1 1c0,0 0,0 0,-1 0,0 0,0 -1,0 0,0 0,0 0,0 0,0 0,0 0,0l-3 2 1 0c0,1 0,1 0,1 0,0 1,0 1,0 0,0 0,0 1,0 0,0 0,0 1,0 0,0 0,0 0,-1 1,0 1,0 1,0 1,0 1,0 1,1 0,0 1,0 1,0 0,0 0,1 0,1 0,0 0,1 0,1 0,0 -1,0 -1,0 0,0 0,0 -1,0 0,-1 0,-1 0,-1 0,0 0,-1 0,-1 0,0 0,0 0,0 -1,0 -1,0 -1,1 -1,0 -1,0 -2,0 0,0 0,0 0,0l-1 0c1,0 1,1 1,1 0,1 0,1 -1,1 0,1 0,1 0,1 0,1 0,1 0,1 0,0 0,0 0,1 0,0 0,0 0,0 0,0 0,0 0,0 0,1 0,1 0,1l0 0zm7 8l-3 -3 1 -1c0,0 0,1 0,1 0,0 0,0 0,0 0,0 1,0 1,0 0,0 0,0 0,0l4 -4 -6 1 -1 0c0,0 0,0 0,0 0,0 0,0 0,1 0,0 0,0 0,0 0,0 1,0 1,0l-1 1 -3 -3 1 -1c0,0 0,0 0,1 0,0 0,0 0,0 0,0 1,0 1,0 0,0 0,0 0,0l4 -5c1,0 1,0 1,0 0,0 0,0 0,0 0,-1 0,-1 -1,-1 0,0 0,0 0,0l1 -1 3 4 -1 0c0,0 0,0 0,0 0,0 0,-1 0,-1 -1,0 -1,0 -1,0 0,0 0,0 0,1l-4 3 6 0c1,0 1,-1 1,-1 0,0 0,0 0,0 0,0 0,-1 -1,-1 0,0 0,0 0,0l1 0 3 3 -1 0c0,0 0,0 0,0 0,0 0,0 0,0 -1,0 -1,-1 -1,0 0,0 0,0 0,0l-5 4c0,0 0,0 0,0 0,0 0,1 0,1 0,0 0,0 0,0 0,0 1,0 1,1l-1 0z"/>

  <text x="62" y="148"  class="fil1 fnt1"><tspan rotate="292">п</tspan></text>
  <text x="66" y="138"  class="fil1 fnt1"><tspan rotate="297">о</tspan></text>
  <text x="71" y="129"  class="fil1 fnt1"><tspan rotate="300">и</tspan></text>
  <text x="77" y="119"  class="fil1 fnt1"><tspan rotate="305">с</tspan></text>
  <text x="82" y="112"  class="fil1 fnt1"><tspan rotate="308">к</tspan></text>

</svg>
